{
  "accessors": [
    {
      "bufferView": 0,
      "componentType": 5125,
      "count": 2748,
      "max": [
        576
      ],
      "min": [
        0
      ],
      "type": "SCALAR"
    },
    {
      "bufferView": 1,
      "componentType": 5126,
      "count": 577,
      "max": [
        0.08365347981452942,
        0.15875619649887085,
        0.08516522496938705
      ],
      "min": [
        -0.08781694620847702,
        0.03240128979086876,
        -0.06054485961794853
      ],
      "type": "VEC3"
    },
    {
      "bufferView": 2,
      "componentType": 5126,
      "count": 577,
      "max": [
        0.8869442939758301,
        0.6580756306648254,
        0.6486648321151733
      ],
      "min": [
        -0.9043586254119873,
        -0.8323115706443787,
        -0.9467253684997559
      ],
      "type": "VEC3"
    },
    {
      "bufferView": 3,
      "componentType": 5126,
      "count": 577,
      "max": [
        283.51263427734375,
        5.0
      ],
      "min": [
        -283.51263427734375,
        -5.0
      ],
      "type": "VEC2"
    },
    {
      "bufferView": 4,
      "componentType": 5125,
      "count": 1884,
      "max": [
        396
      ],
      "min": [
        0
      ],
      "type": "SCALAR"
    },
    {
      "bufferView": 5,
      "componentType": 5126,
      "count": 397,
      "max": [
        0.05936170369386673,
        0.18163757026195526,
        0.055554769933223724
      ],
      "min": [
        -0.061024200171232224,
        0.09562835097312927,
        -0.04776674509048462
      ],
      "type": "VEC3"
    },
    {
      "bufferView": 6,
      "componentType": 5126,
      "count": 397,
      "max": [
        0.9857036471366882,
        0.5726704597473145,
        0.8036586046218872
      ],
      "min": [
        -0.9964399933815002,
        -0.7069388628005981,
        -0.9259465336799622
      ],
      "type": "VEC3"
    },
    {
      "bufferView": 7,
      "componentType": 5126,
      "count": 397,
      "max": [
        193.02952575683594,
        5.0
      ],
      "min": [
        -193.029541015625,
        -5.0
      ],
      "type": "VEC2"
    },
    {
      "bufferView": 8,
      "componentType": 5125,
      "count": 2142,
      "max": [
        449
      ],
      "min": [
        0
      ],
      "type": "SCALAR"
    },
    {
      "bufferView": 9,
      "componentType": 5126,
      "count": 450,
      "max": [
        0.06910328567028046,
        0.16807079315185547,
        0.06217687204480171
      ],
      "min": [
        -0.07273589819669724,
        0.08015613257884979,
        -0.05508255586028099
      ],
      "type": "VEC3"
    },
    {
      "bufferView": 10,
      "componentType": 5126,
      "count": 450,
      "max": [
        0.935762345790863,
        0.6619762778282166,
        0.8091530799865723
      ],
      "min": [
        -0.9651018381118774,
        -0.6778274774551392,
        -0.9266350865364075
      ],
      "type": "VEC3"
    },
    {
      "bufferView": 11,
      "componentType": 5126,
      "count": 450,
      "max": [
        220.18988037109375,
        5.0
      ],
      "min": [
        -220.1898651123047,
        -5.0
      ],
      "type": "VEC2"
    },
    {
      "bufferView": 12,
      "componentType": 5125,
      "count": 4796352,
      "max": [
        841367
      ],
      "min": [
        0
      ],
      "type": "SCALAR"
    },
    {
      "bufferView": 13,
      "componentType": 5126,
      "count": 841368,
      "max": [
        0.08435045182704926,
        0.1572025865316391,
        0.08491876721382141
      ],
      "min": [
        -0.08912494778633118,
        0.03115887939929962,
        -0.06327079236507416
      ],
      "type": "VEC3"
    },
    {
      "bufferView": 14,
      "componentType": 5126,
      "count": 841368,
      "max": [
        1.0,
        0.999993085861206,
        0.9999934434890747
      ],
      "min": [
        -0.9999916553497314,
        -0.9999962449073792,
        -0.9999872446060181
      ],
      "type": "VEC3"
    },
    {
      "bufferView": 15,
      "componentType": 5126,
      "count": 841368,
      "max": [
        1034.3228759765625,
        1034.205810546875
      ],
      "min": [
        -1034.3228759765625,
        -1034.205810546875
      ],
      "type": "VEC2"
    },
    {
      "bufferView": 16,
      "componentType": 5125,
      "count": 3270240,
      "max": [
        573659
      ],
      "min": [
        0
      ],
      "type": "SCALAR"
    },
    {
      "bufferView": 17,
      "componentType": 5126,
      "count": 573660,
      "max": [
        0.0628327950835228,
        0.1803715080022812,
        0.05641438439488411
      ],
      "min": [
        -0.06494089961051941,
        0.09549524635076523,
        -0.05006132274866104
      ],
      "type": "VEC3"
    },
    {
      "bufferView": 18,
      "componentType": 5126,
      "count": 573660,
      "max": [
        1.0,
        0.9999814629554749,
        0.9999967813491821
      ],
      "min": [
        -0.999973714351654,
        -0.999996542930603,
        -0.9999929666519165
      ],
      "type": "VEC3"
    },
    {
      "bufferView": 19,
      "componentType": 5126,
      "count": 573660,
      "max": [
        1034.3228759765625,
        1034.205810546875
      ],
      "min": [
        -1034.3228759765625,
        -1034.205810546875
      ],
      "type": "VEC2"
    },
    {
      "bufferView": 20,
      "componentType": 5125,
      "count": 3742608,
      "max": [
        656521
      ],
      "min": [
        0
      ],
      "type": "SCALAR"
    },
    {
      "bufferView": 21,
      "componentType": 5126,
      "count": 656522,
      "max": [
        0.0713992789387703,
        0.1667221635580063,
        0.06318271905183792
      ],
      "min": [
        -0.07564674317836761,
        0.08017179369926453,
        -0.057504791766405106
      ],
      "type": "VEC3"
    },
    {
      "bufferView": 22,
      "componentType": 5126,
      "count": 656522,
      "max": [
        1.0,
        0.9999956488609314,
        0.9999994039535522
      ],
      "min": [
        -0.9999939799308777,
        -0.999998152256012,
        -0.999994695186615
      ],
      "type": "VEC3"
    },
    {
      "bufferView": 23,
      "componentType": 5126,
      "count": 656522,
      "max": [
        1034.3228759765625,
        1034.205810546875
      ],
      "min": [
        -1034.3228759765625,
        -1034.205810546875
      ],
      "type": "VEC2"
    },
    {
      "bufferView": 24,
      "componentType": 5125,
      "count": 29436,
      "max": [
        4907
      ],
      "min": [
        0
      ],
      "type": "SCALAR"
    },
    {
      "bufferView": 25,
      "componentType": 5126,
      "count": 4908,
      "max": [
        0.2947292923927307,
        1.1248008012771606,
        0.307933509349823
      ],
      "min": [
        -0.2946714758872986,
        0.0,
        -0.19842125475406647
      ],
      "type": "VEC3"
    },
    {
      "bufferView": 26,
      "componentType": 5126,
      "count": 4908,
      "max": [
        0.9999600052833557,
        0.9993265867233276,
        0.9999847412109375
      ],
      "min": [
        -0.999966025352478,
        -1.0,
        -0.9999902844429016
      ],
      "type": "VEC3"
    }
  ],
  "asset": {
    "generator": "CLO Standalone OnlineAuth 2025.2.256",
    "version": "2.0"
  },
  "bufferViews": [
    {
      "buffer": 0,
      "byteLength": 10992
    },
    {
      "buffer": 0,
      "byteLength": 6924,
      "byteOffset": 10992
    },
    {
      "buffer": 0,
      "byteLength": 6924,
      "byteOffset": 17916
    },
    {
      "buffer": 0,
      "byteLength": 4616,
      "byteOffset": 24840
    },
    {
      "buffer": 0,
      "byteLength": 7536,
      "byteOffset": 29456
    },
    {
      "buffer": 0,
      "byteLength": 4764,
      "byteOffset": 36992
    },
    {
      "buffer": 0,
      "byteLength": 4764,
      "byteOffset": 41756
    },
    {
      "buffer": 0,
      "byteLength": 3176,
      "byteOffset": 46520
    },
    {
      "buffer": 0,
      "byteLength": 8568,
      "byteOffset": 49696
    },
    {
      "buffer": 0,
      "byteLength": 5400,
      "byteOffset": 58264
    },
    {
      "buffer": 0,
      "byteLength": 5400,
      "byteOffset": 63664
    },
    {
      "buffer": 0,
      "byteLength": 3600,
      "byteOffset": 69064
    },
    {
      "buffer": 0,
      "byteLength": 19185408,
      "byteOffset": 72664
    },
    {
      "buffer": 0,
      "byteLength": 10096416,
      "byteOffset": 19258072
    },
    {
      "buffer": 0,
      "byteLength": 10096416,
      "byteOffset": 29354488
    },
    {
      "buffer": 0,
      "byteLength": 6730944,
      "byteOffset": 39450904
    },
    {
      "buffer": 0,
      "byteLength": 13080960,
      "byteOffset": 46181848
    },
    {
      "buffer": 0,
      "byteLength": 6883920,
      "byteOffset": 59262808
    },
    {
      "buffer": 0,
      "byteLength": 6883920,
      "byteOffset": 66146728
    },
    {
      "buffer": 0,
      "byteLength": 4589280,
      "byteOffset": 73030648
    },
    {
      "buffer": 0,
      "byteLength": 14970432,
      "byteOffset": 77619928
    },
    {
      "buffer": 0,
      "byteLength": 7878264,
      "byteOffset": 92590360
    },
    {
      "buffer": 0,
      "byteLength": 7878264,
      "byteOffset": 100468624
    },
    {
      "buffer": 0,
      "byteLength": 5252176,
      "byteOffset": 108346888
    },
    {
      "buffer": 0,
      "byteLength": 117744,
      "byteOffset": 113599064
    },
    {
      "buffer": 0,
      "byteLength": 58896,
      "byteOffset": 113716808
    },
    {
      "buffer": 0,
      "byteLength": 58896,
      "byteOffset": 113775704
    }
  ],
  "buffers": [
    {
      "byteLength": 113834600,
      "uri": "ุณ.bin"
    }
  ],
  "extensionsUsed": [
    "KHR_materials_specular"
  ],
  "materials": [
    {
      "alphaMode": "BLEND",
      "doubleSided": true,
      "extensions": {
        "KHR_materials_specular": {
          "specularFactor": 0.15000000596046448
        }
      },
      "name": "FABRIC 1_2049",
      "pbrMetallicRoughness": {
        "baseColorFactor": [
          1.0,
          1.0,
          1.0,
          0.0
        ],
        "metallicFactor": 0.0,
        "roughnessFactor": 0.5
      }
    },
    {
      "extensions": {
        "KHR_materials_specular": {
          "specularFactor": 0.75
        }
      },
      "name": "Pearl 1 -2_2064",
      "pbrMetallicRoughness": {
        "metallicFactor": 0.0,
        "roughnessFactor": 0.3500000238418579
      }
    },
    {
      "extensions": {
        "KHR_materials_specular": {
          "specularFactor": 0.15000000596046448
        }
      },
      "name": "Material6692_1804",
      "pbrMetallicRoughness": {
        "baseColorFactor": [
          0.0,
          0.0,
          0.0,
          1.0
        ],
        "metallicFactor": 0.0,
        "roughnessFactor": 0.5
      }
    }
  ],
  "meshes": [
    {
      "name": "Cloth_mesh",
      "primitives": [
        {
          "attributes": {
            "NORMAL": 2,
            "POSITION": 1,
            "TEXCOORD_0": 3
          },
          "indices": 0,
          "material": 0
        },
        {
          "attributes": {
            "NORMAL": 6,
            "POSITION": 5,
            "TEXCOORD_0": 7
          },
          "indices": 4,
          "material": 0
        },
        {
          "attributes": {
            "NORMAL": 10,
            "POSITION": 9,
            "TEXCOORD_0": 11
          },
          "indices": 8,
          "material": 0
        }
      ]
    },
    {
      "name": "Topstitch_872105",
      "primitives": [
        {
          "attributes": {
            "NORMAL": 14,
            "POSITION": 13,
            "TEXCOORD_0": 15
          },
          "indices": 12,
          "material": 1
        }
      ]
    },
    {
      "name": "Topstitch_870328",
      "primitives": [
        {
          "attributes": {
            "NORMAL": 18,
            "POSITION": 17,
            "TEXCOORD_0": 19
          },
          "indices": 16,
          "material": 1
        }
      ]
    },
    {
      "name": "Topstitch_871210",
      "primitives": [
        {
          "attributes": {
            "NORMAL": 22,
            "POSITION": 21,
            "TEXCOORD_0": 23
          },
          "indices": 20,
          "material": 1
        }
      ]
    },
    {
      "name": "Obj_Avatar_Shape",
      "primitives": [
        {
          "attributes": {
            "NORMAL": 26,
            "POSITION": 25
          },
          "indices": 24,
          "material": 2
        }
      ]
    }
  ],
  "nodes": [
    {
      "children": [
        1,
        5
      ],
      "name": "ุณ_Scene_Node"
    },
    {
      "children": [
        2,
        3,
        4
      ],
      "mesh": 0,
      "name": "Cloth"
    },
    {
      "mesh": 1,
      "name": "BindedTrim_2967"
    },
    {
      "mesh": 2,
      "name": "BindedTrim_3065"
    },
    {
      "mesh": 3,
      "name": "BindedTrim_3176"
    },
    {
      "children": [
        6
      ],
      "name": "Avatar"
    },
    {
      "children": [
        7
      ],
      "name": "hhhh"
    },
    {
      "children": [
        8
      ],
      "name": "Obj_Avatar_Shape",
      "scale": [
        0.3761835992336273,
        0.3761835992336273,
        0.3761835992336273
      ],
      "translation": [
        -0.0007871434791013598,
        -0.030545353889465332,
        0.00025071101845242083
      ]
    },
    {
      "mesh": 4,
      "name": "Obj_Avatar_Shape"
    }
  ],
  "scene": 0,
  "scenes": [
    {
      "nodes": [
        0
      ]
    }
  ]
}