{
  "accessors": [
    {
      "bufferView": 0,
      "componentType": 5125,
      "count": 4608,
      "max": [
        769
      ],
      "min": [
        0
      ],
      "type": "SCALAR"
    },
    {
      "bufferView": 1,
      "componentType": 5125,
      "count": 2064,
      "max": [
        1115
      ],
      "min": [
        770
      ],
      "type": "SCALAR"
    },
    {
      "bufferView": 2,
      "componentType": 5125,
      "count": 576,
      "max": [
        1213
      ],
      "min": [
        1116
      ],
      "type": "SCALAR"
    },
    {
      "bufferView": 3,
      "componentType": 5125,
      "count": 4080,
      "max": [
        1895
      ],
      "min": [
        1214
      ],
      "type": "SCALAR"
    },
    {
      "bufferView": 4,
      "componentType": 5125,
      "count": 2148,
      "max": [
        2255
      ],
      "min": [
        1896
      ],
      "type": "SCALAR"
    },
    {
      "bufferView": 5,
      "componentType": 5126,
      "count": 2256,
      "max": [
        0.30148735642433167,
        1.9492251873016357,
        0.3022690713405609
      ],
      "min": [
        -0.30148735642433167,
        0.0,
        -0.30348753929138184
      ],
      "type": "VEC3"
    },
    {
      "bufferView": 6,
      "componentType": 5126,
      "count": 2256,
      "max": [
        0.9999781250953674,
        1.0,
        1.0
      ],
      "min": [
        -0.9999781250953674,
        -1.0,
        -1.0
      ],
      "type": "VEC3"
    },
    {
      "bufferView": 7,
      "componentType": 5125,
      "count": 402,
      "max": [
        68
      ],
      "min": [
        0
      ],
      "type": "SCALAR"
    },
    {
      "bufferView": 8,
      "componentType": 5125,
      "count": 4518,
      "max": [
        821
      ],
      "min": [
        69
      ],
      "type": "SCALAR"
    },
    {
      "bufferView": 9,
      "componentType": 5125,
      "count": 2412,
      "max": [
        1225
      ],
      "min": [
        822
      ],
      "type": "SCALAR"
    },
    {
      "bufferView": 10,
      "componentType": 5126,
      "count": 1226,
      "max": [
        0.36031851172447205,
        1.683670163154602,
        0.39280691742897034
      ],
      "min": [
        -0.3603185713291168,
        0.0,
        -0.38099372386932373
      ],
      "type": "VEC3"
    },
    {
      "bufferView": 11,
      "componentType": 5126,
      "count": 1226,
      "max": [
        0.9998559355735779,
        0.9999920129776001,
        0.9987175464630127
      ],
      "min": [
        -0.999930202960968,
        -0.9999908208847046,
        -0.9986476898193359
      ],
      "type": "VEC3"
    },
    {
      "bufferView": 12,
      "componentType": 5125,
      "count": 852,
      "max": [
        143
      ],
      "min": [
        0
      ],
      "type": "SCALAR"
    },
    {
      "bufferView": 13,
      "componentType": 5126,
      "count": 144,
      "max": [
        0.22394350171089172,
        2.1366732120513916,
        0.30000314116477966
      ],
      "min": [
        -0.22394350171089172,
        0.0,
        -0.3014427423477173
      ],
      "type": "VEC3"
    },
    {
      "bufferView": 14,
      "componentType": 5126,
      "count": 144,
      "max": [
        0.9785881638526917,
        0.9719279408454895,
        0.9979669451713562
      ],
      "min": [
        -0.9785881638526917,
        -0.9342496395111084,
        -0.9998859763145447
      ],
      "type": "VEC3"
    }
  ],
  "asset": {
    "generator": "CLO Standalone OnlineAuth 2025.2.256",
    "version": "2.0"
  },
  "bufferViews": [
    {
      "buffer": 0,
      "byteLength": 18432
    },
    {
      "buffer": 0,
      "byteLength": 8256,
      "byteOffset": 18432
    },
    {
      "buffer": 0,
      "byteLength": 2304,
      "byteOffset": 26688
    },
    {
      "buffer": 0,
      "byteLength": 16320,
      "byteOffset": 28992
    },
    {
      "buffer": 0,
      "byteLength": 8592,
      "byteOffset": 45312
    },
    {
      "buffer": 0,
      "byteLength": 27072,
      "byteOffset": 53904
    },
    {
      "buffer": 0,
      "byteLength": 27072,
      "byteOffset": 80976
    },
    {
      "buffer": 0,
      "byteLength": 1608,
      "byteOffset": 108048
    },
    {
      "buffer": 0,
      "byteLength": 18072,
      "byteOffset": 109656
    },
    {
      "buffer": 0,
      "byteLength": 9648,
      "byteOffset": 127728
    },
    {
      "buffer": 0,
      "byteLength": 14712,
      "byteOffset": 137376
    },
    {
      "buffer": 0,
      "byteLength": 14712,
      "byteOffset": 152088
    },
    {
      "buffer": 0,
      "byteLength": 3408,
      "byteOffset": 166800
    },
    {
      "buffer": 0,
      "byteLength": 1728,
      "byteOffset": 170208
    },
    {
      "buffer": 0,
      "byteLength": 1728,
      "byteOffset": 171936
    }
  ],
  "buffers": [
    {
      "byteLength": 173664,
      "uri": "ุด.bin"
    }
  ],
  "extensionsUsed": [
    "KHR_materials_specular"
  ],
  "materials": [
    {
      "extensions": {
        "KHR_materials_specular": {
          "specularFactor": 0.15000000596046448
        }
      },
      "name": "Material2413_2413",
      "pbrMetallicRoughness": {
        "baseColorFactor": [
          0.8671355247497559,
          0.5604991912841797,
          0.15728072822093964,
          1.0
        ],
        "metallicFactor": 0.0,
        "roughnessFactor": 0.5
      }
    },
    {
      "extensions": {
        "KHR_materials_specular": {
          "specularFactor": 0.75
        }
      },
      "name": "Material2415_2415",
      "pbrMetallicRoughness": {
        "baseColorFactor": [
          0.8671355247497559,
          0.5604991912841797,
          0.15728072822093964,
          1.0
        ],
        "metallicFactor": 0.0,
        "roughnessFactor": 0.3500000238418579
      }
    },
    {
      "extensions": {
        "KHR_materials_specular": {
          "specularFactor": 0.75
        }
      },
      "name": "Material2417_2417",
      "pbrMetallicRoughness": {
        "baseColorFactor": [
          0.8671355247497559,
          0.5604991912841797,
          0.15728072822093964,
          1.0
        ],
        "metallicFactor": 0.0,
        "roughnessFactor": 0.3500000238418579
      }
    },
    {
      "extensions": {
        "KHR_materials_specular": {
          "specularFactor": 0.75
        }
      },
      "name": "Material2419_2419",
      "pbrMetallicRoughness": {
        "baseColorFactor": [
          0.8671355247497559,
          0.5604991912841797,
          0.15728072822093964,
          1.0
        ],
        "metallicFactor": 0.0,
        "roughnessFactor": 0.3500000238418579
      }
    },
    {
      "extensions": {
        "KHR_materials_specular": {
          "specularFactor": 0.75
        }
      },
      "name": "Material2421_2421",
      "pbrMetallicRoughness": {
        "baseColorFactor": [
          0.8671355247497559,
          0.5604991912841797,
          0.15728072822093964,
          1.0
        ],
        "metallicFactor": 0.0,
        "roughnessFactor": 0.3500000238418579
      }
    },
    {
      "extensions": {
        "KHR_materials_specular": {
          "specularFactor": 0.15000000596046448
        }
      },
      "name": "Material2860_2860",
      "pbrMetallicRoughness": {
        "metallicFactor": 0.0,
        "roughnessFactor": 0.5
      }
    },
    {
      "extensions": {
        "KHR_materials_specular": {
          "specularFactor": 0.15000000596046448
        }
      },
      "name": "Material2862_2862",
      "pbrMetallicRoughness": {
        "baseColorFactor": [
          0.9658146500587463,
          0.7372047901153564,
          0.5668097734451294,
          1.0
        ],
        "metallicFactor": 0.0,
        "roughnessFactor": 0.5
      }
    },
    {
      "extensions": {
        "KHR_materials_specular": {
          "specularFactor": 0.15000000596046448
        }
      },
      "name": "Material2864_2864",
      "pbrMetallicRoughness": {
        "baseColorFactor": [
          0.9658146500587463,
          0.7372047901153564,
          0.5668097734451294,
          1.0
        ],
        "metallicFactor": 0.0,
        "roughnessFactor": 0.5
      }
    },
    {
      "extensions": {
        "KHR_materials_specular": {
          "specularFactor": 0.15000000596046448
        }
      },
      "name": "Material5021_5021",
      "pbrMetallicRoughness": {
        "baseColorFactor": [
          0.9239933490753174,
          0.12198571115732193,
          0.0,
          1.0
        ],
        "metallicFactor": 0.0,
        "roughnessFactor": 0.5
      }
    }
  ],
  "meshes": [
    {
      "name": "Obj_Avatar_Shape",
      "primitives": [
        {
          "attributes": {
            "NORMAL": 6,
            "POSITION": 5
          },
          "indices": 0,
          "material": 0
        },
        {
          "attributes": {
            "NORMAL": 6,
            "POSITION": 5
          },
          "indices": 1,
          "material": 1
        },
        {
          "attributes": {
            "NORMAL": 6,
            "POSITION": 5
          },
          "indices": 2,
          "material": 2
        },
        {
          "attributes": {
            "NORMAL": 6,
            "POSITION": 5
          },
          "indices": 3,
          "material": 3
        },
        {
          "attributes": {
            "NORMAL": 6,
            "POSITION": 5
          },
          "indices": 4,
          "material": 4
        }
      ]
    },
    {
      "name": "Obj_Avatar_Shape",
      "primitives": [
        {
          "attributes": {
            "NORMAL": 11,
            "POSITION": 10
          },
          "indices": 7,
          "material": 5
        },
        {
          "attributes": {
            "NORMAL": 11,
            "POSITION": 10
          },
          "indices": 8,
          "material": 6
        },
        {
          "attributes": {
            "NORMAL": 11,
            "POSITION": 10
          },
          "indices": 9,
          "material": 7
        }
      ]
    },
    {
      "name": "Obj_Avatar_Shape",
      "primitives": [
        {
          "attributes": {
            "NORMAL": 14,
            "POSITION": 13
          },
          "indices": 12,
          "material": 8
        }
      ]
    }
  ],
  "nodes": [
    {
      "children": [
        1
      ],
      "name": "ุด_Scene_Node"
    },
    {
      "children": [
        2,
        5,
        8
      ],
      "name": "Avatar"
    },
    {
      "children": [
        3
      ],
      "name": "PM3D_SweepProfile3D"
    },
    {
      "children": [
        4
      ],
      "name": "Obj_Avatar_Shape"
    },
    {
      "mesh": 0,
      "name": "Obj_Avatar_Shape"
    },
    {
      "children": [
        6
      ],
      "name": "PM3D_SweepProfile3D",
      "rotation": [
        -0.0023352582938969135,
        -0.14025074243545532,
        0.0007754386169835925,
        0.9901129603385925
      ],
      "translation": [
        0.014058747328817844,
        1.790511965751648,
        -0.04114517569541931
      ]
    },
    {
      "children": [
        7
      ],
      "name": "Obj_Avatar_Shape",
      "scale": [
        0.3191647529602051,
        0.3191615343093872,
        0.31916505098342896
      ],
      "translation": [
        -0.006462484132498503,
        -0.07529699802398682,
        0.03958520665764809
      ]
    },
    {
      "mesh": 1,
      "name": "Obj_Avatar_Shape"
    },
    {
      "children": [
        9
      ],
      "name": "PM3D_SweepProfile3D",
      "translation": [
        1.0950148521260417e-07,
        2.099576950073242,
        2.659321012288274e-07
      ]
    },
    {
      "children": [
        10
      ],
      "name": "Obj_Avatar_Shape",
      "scale": [
        0.19407717883586884,
        0.19407717883586884,
        0.19407717883586884
      ],
      "translation": [
        -0.00040551027632318437,
        -0.020188720896840096,
        0.005954057909548283
      ]
    },
    {
      "mesh": 2,
      "name": "Obj_Avatar_Shape"
    }
  ],
  "scene": 0,
  "scenes": [
    {
      "nodes": [
        0
      ]
    }
  ]
}